<svg xmlns="http://www.w3.org/2000/svg" xml:space="preserve" width="100" height="100">
  <path d="M42 27.2h-1a27 27 0 0 0-17.5 9.4l-2 2c-3.6 3.6-12.3 3.7-16 3.7a7 7 0 0 0-2.1.1c-.8.4-1.1.5 3 13 2 6 4.1 11.8 4.2 11.9v.3l.4.1a17.9 17.9 0 0 0 16.4-2.5c2.6-2 4.2-4.3 5.6-6.5 2.7-4 5.2-7.8 14.2-10.8l10.4 25.8 3-.6L42 27zm-4.4 2.3 1.6 3.5-9 4.2-1.5-3.5c2-1.6 4.7-3 8.9-4.2zm-17.8 12 .2.5-8.2 3.9-1-2.3c3-.2 6.3-.8 9-2zm-11 16c-1-2.6-1.8-5.2-2.5-7.4l4.8-2.3 3.3 7.1-5.7 2.7zM14 67l5-2.4 1 2.3a15 15 0 0 1-6 0zm11-16.3 3.6 7.8-9 4.2-.6.3-3.3-7-.2-.4.7-.4 8.8-4.5-3.8-7.6-.4-.7.9-.4 8.2-3.9 4 8.5-9 4.1zm12.6.4-2-4.5 4-2 4.2-1.9 2 4.2a29 29 0 0 0-8.2 4.2z"/>
  <path d="m40.9 73 2.8.8 10.5-26c9 3.1 11.5 6.9 14.2 10.9 1.4 2.2 3 4.4 5.6 6.5a17.9 17.9 0 0 0 16.4 2.5h.3l.1-.4s2.2-6 4.1-11.9c4.2-12.5 4-12.6 3.1-13a7 7 0 0 0-2 0c-3.8-.1-12.5-.2-16.1-3.7l-2-2.1a27 27 0 0 0-17.5-9.4h-1L40.9 73zm31.9-39.3L71 37.2 62.2 33l1.6-3.5a26 26 0 0 1 9 4.2zm17.9 10-1 2.2-8.3-4 .2-.3c2.7 1.2 6 1.8 9 2zM87 54.8l3.3-7 4.9 2.2-2.5 7.5-5.7-2.7zm-5.6 12 1-2.3 5 2.4a20 20 0 0 1-6 0zM67.5 46.6l4-8.5 8.2 4 1 .3-.5.7-3.8 7.6 8.8 4.5.7.4-.2.3-3.3 7.1-.7-.3-8.9-4.2 3.6-7.8-8.9-4.1zm-11.8.3 2-4.2 4 2 4.2 1.9-2.1 4.5a29 29 0 0 0-8.1-4.2z"/>
</svg>
